PathFileType	4	(X/Y/Z)	Captury_Subj1_walk03.trc
DataRate	CameraRate	NumFrames	NumMarkers	Units	OrigDataRate	OrigDataStartFrame	OrigNumFrames
100.0	100.0	5	47	mm	59.99879837036133	176	121
Frame#	Time		LeftUpLeg_		RightUpLeg_		LeftLeg_		RightLeg_		LeftFoot_		RightFoot_		LeftToeBase_		RightToeBase_		Knee_Lateral_r		Knee_Lateral_l		Ankle_Lateral_r		Ankle_Lateral_l		LeftArm_		LeftForeArm_		LeftHand_		LeftHandEE		RightArm_		RightForeArm_		RightHand_		RightHandEE		Spine_		Spine1_		Spine2_		Spine3_		Spine4_		Spine5_		Spine_x		Spine_y		Spine_z		RASI		LASI		RIPS		LIPS		RTHI		LTHI		RTIB		LTIB		RTOE		LTOE		RHEE		LHEE		RHipAngles		LHipAngles		RKneeAngles		LKneeAngles		RAnkleAngles		LAnkleAngles
			X1	Y1	Z1	X2	Y2	Z2	X3	Y3	Z3	X4	Y4	Z4	X5	Y5	Z5	X6	Y6	Z6	X7	Y7	Z7	X8	Y8	Z8	X9	Y9	Z9	X10	Y10	Z10	X11	Y11	Z11	X12	Y12	Z12	X13	Y13	Z13	X14	Y14	Z14	X15	Y15	Z15	X16	Y16	Z16	X17	Y17	Z17	X18	Y18	Z18	X19	Y19	Z19	X20	Y20	Z20	X21	Y21	Z21	X22	Y22	Z22	X23	Y23	Z23	X24	Y24	Z24	X25	Y25	Z25	X26	Y26	Z26	X27	Y27	Z27	X28	Y28	Z28	X29	Y29	Z29	X30	Y30	Z30	X31	Y31	Z31	X32	Y32	Z32	X33	Y33	Z33	X34	Y34	Z34	X35	Y35	Z35	X36	Y36	Z36	X37	Y37	Z37	X38	Y38	Z38	X39	Y39	Z39	X40	Y40	Z40	X41	Y41	Z41	X42	Y42	Z42	X43	Y43	Z43	X44	Y44	Z44	X45	Y45	Z45	X46	Y46	Z46	X47	Y47	Z47

176	1.75000	-1100.01892	826.37286	70.63864	-1131.33313	825.85394	-92.33099	-1131.86572	429.57785	91.41293	-1251.98853	447.28909	-60.34724	-827.87463	223.04056	74.35981	-1215.78638	81.76581	-39.34245	-793.43652	101.07041	68.39565	-1332.39075	31.76442	-40.58416	-1253.60376	441.51663	-105.70529	-1126.66089	429.19754	136.86673	-1199.15259	77.31467	-85.51367	-821.15125	240.83867	119.81638	-1086.16467	1311.44531	125.73004	-1116.74805	1052.25098	216.57994	-1265.20422	875.16223	249.82231	-1319.53625	810.65594	237.72357	-1099.19421	1305.05396	-137.71718	-1049.70715	1042.09998	-206.83302	-1031.19275	816.97693	-265.83755	-991.95453	742.33490	-253.65833	-1088.35388	914.74536	-16.37826	-1095.42627	1012.10004	-14.57480	-1078.34558	1081.10620	-16.45403	-1039.36438	1162.81140	-20.65955	-1035.06592	1295.04773	-16.77392	4185915979477856304811803089567744.00000	0.00000	4185920931238013446332902686064640.00000	-1097.13721	914.59985	-62.08947	-1083.54407	961.03143	-17.44982	-1042.89624	909.81976	-25.09717	-1226.68823	898.35846	-131.94357	-1173.98828	899.23169	142.32370	-1070.99182	883.90192	-57.53564	-1056.93848	884.13483	15.60230	-1187.27820	639.73859	-141.77664	-1104.63965	640.02417	144.57408	-1251.16724	278.42120	-86.91819	-957.44403	290.66937	116.01835	-1403.05737	20.71143	-39.71979	-811.60400	31.90254	66.83264	-1167.25269	20.12414	-45.75138	-760.25037	263.28787	72.51598	-11.02368	-4.17797	10.32469	2.04539	-0.95824	-4.21442	-17.52819	0.64996	-0.01395	-54.91515	-0.08114	-0.03473	1.92415	1.10320	11.35908	34.46476	-1.72993	3.67755
177	1.76000	-1115.25220	829.01925	69.56525	-1142.87727	828.02264	-94.03891	-1159.22666	433.69380	93.44400	-1256.18113	447.31663	-61.21144	-857.79861	223.62141	74.60471	-1215.65894	82.29099	-39.75147	-828.03291	100.43804	69.97843	-1332.01509	31.73208	-41.45644	-1257.65391	441.40604	-106.55627	-1153.33855	433.41396	138.81152	-1198.87200	77.85933	-85.86890	-849.89082	241.60833	119.78440	-1100.09490	1314.21094	125.16831	-1127.02971	1054.08804	214.44458	-1270.40098	873.03455	248.22513	-1322.80293	806.90034	236.59254	-1112.83521	1307.60725	-138.41426	-1069.11084	1043.75093	-207.81188	-1057.30168	818.20820	-266.68162	-1020.03635	742.63120	-254.20828	-1101.43604	917.07710	-17.43756	-1108.46909	1014.50531	-16.04347	-1091.35750	1083.57659	-17.69298	-1052.38750	1165.38462	-21.26790	-1048.33967	1297.68738	-17.16489	4185915979477856304811803089567744.00000	0.00000	4185920931238013446332902686064640.00000	-1109.18459	916.79756	-63.32675	-1096.50310	963.34911	-18.55039	-1055.81184	912.02897	-25.11055	-1237.13945	900.59077	-136.02227	-1190.64832	902.26798	139.31288	-1083.22012	886.06139	-58.08501	-1070.82249	886.50864	15.33770	-1195.16580	640.76387	-143.06745	-1124.58994	643.40770	144.78821	-1253.28840	278.45209	-87.60392	-986.12336	293.00822	117.17102	-1402.64714	20.44599	-40.87040	-848.80221	32.03232	69.61035	-1166.80554	20.88082	-45.93922	-788.78182	261.24676	71.40889	-9.70975	-4.68607	9.18807	0.37017	-0.86796	-2.07392	-17.09852	0.74250	0.01279	-56.06213	0.23447	-0.02510	1.50292	1.17610	11.40925	32.92537	-1.54434	3.64949
178	1.77000	-1129.29653	831.53145	68.55389	-1154.41780	830.13892	-95.47935	-1186.35864	438.04662	95.03893	-1259.95884	447.25421	-62.05158	-888.06332	223.66960	75.08624	-1215.53511	82.68942	-40.28397	-863.68456	99.28721	71.76609	-1331.69570	31.68456	-42.09669	-1261.46084	441.27892	-107.38654	-1180.06511	437.82466	140.35576	-1198.76101	78.25941	-86.40576	-879.04139	241.68737	120.05045	-1113.89971	1316.97271	124.60649	-1137.29014	1055.95005	212.26644	-1275.30969	870.88077	246.63999	-1325.79746	803.17830	235.49863	-1126.57412	1310.11577	-139.05032	-1088.37625	1045.45645	-208.73209	-1083.57756	819.60146	-267.42957	-1048.38035	743.07006	-254.74878	-1114.15955	919.38204	-18.45646	-1121.31497	1016.87952	-17.35040	-1104.28616	1086.05200	-18.84159	-1065.44663	1168.02065	-21.97743	-1061.76523	1300.40269	-17.67708	4185915979477856304811803089567744.00000	0.00000	4185920931238013446332902686064640.00000	-1121.20581	918.99143	-64.46600	-1109.21565	965.65187	-19.60650	-1068.41489	914.32120	-25.41927	-1248.05164	902.59438	-139.08433	-1205.77437	904.93794	136.97294	-1095.31609	888.27118	-58.75176	-1084.04219	888.89609	14.86352	-1203.10144	641.82552	-144.22162	-1144.19536	646.76440	144.89958	-1255.31296	278.39612	-88.27820	-1015.08638	295.06614	118.22874	-1402.29973	20.22006	-41.57406	-887.40459	31.85901	72.43988	-1166.44004	21.46429	-46.40083	-817.52894	258.23416	70.83134	-8.50001	-5.06547	8.21521	-1.56450	-0.86222	-0.67574	-16.54783	0.74258	0.04471	-57.18409	0.38495	-0.00393	1.10114	1.27388	11.45912	31.21587	-1.32158	3.60719
179	1.78000	-1140.96299	833.77526	67.66662	-1165.95110	832.15033	-96.38480	-1213.03271	442.87315	95.76161	-1262.90676	447.01187	-62.84355	-919.00950	222.65245	76.04103	-1215.41851	82.83433	-41.06341	-901.44673	97.09944	73.96350	-1331.48887	31.60663	-42.27287	-1264.78135	441.11878	-108.17540	-1206.88948	442.62391	141.09892	-1198.98923	78.37034	-87.30591	-909.01396	240.38521	120.91254	-1127.45369	1319.72676	124.04448	-1147.50808	1057.86196	210.00274	-1279.64233	868.67483	245.07894	-1328.24771	799.52336	234.47897	-1140.50889	1312.53474	-139.56433	-1107.36509	1047.27109	-209.53503	-1110.18733	821.31870	-267.98529	-1077.24868	743.79402	-255.27037	-1126.16577	921.63340	-19.39454	-1133.76694	1019.19159	-18.33387	-1117.04832	1088.53748	-19.80949	-1078.57778	1170.78232	-22.88929	-1075.49441	1303.26931	-18.43168	4185915979477856304811803089567744.00000	0.00000	4185920931238013446332902686064640.00000	-1133.17468	921.17764	-65.40919	-1121.43523	967.92479	-20.57369	-1080.39285	916.77950	-26.31865	-1259.88574	904.14060	-140.11310	-1217.83245	906.87523	135.97476	-1107.14741	890.58160	-59.65323	-1095.93328	891.31082	13.97020	-1211.13318	642.95994	-145.10252	-1163.11104	650.06744	144.80541	-1257.14431	278.16641	-88.92960	-1044.61675	296.56222	119.09657	-1402.07795	20.07315	-41.38379	-928.81532	31.07952	75.37305	-1166.23782	21.70137	-47.40994	-846.70739	253.27857	71.31289	-7.49865	-5.18750	7.56987	-4.01807	-1.02556	-0.76225	-15.75509	0.55775	0.08698	-58.25600	0.20514	0.04035	0.73825	1.42143	11.50840	29.16617	-1.02450	3.53639
180	1.79000	-1152.99854	835.78513	66.84248	-1177.50896	834.19978	-97.28054	-1239.09604	447.85695	96.19084	-1266.34229	447.15627	-63.30552	-950.73097	220.34239	76.90929	-1215.36074	83.45129	-41.64349	-941.01388	94.02964	76.34681	-1331.23862	31.78782	-42.74765	-1268.46919	441.26232	-108.62655	-1233.10984	447.56752	141.54881	-1199.16887	79.00448	-87.97166	-939.65609	237.67434	121.67784	-1140.73096	1322.79985	123.67878	-1157.93672	1060.05059	207.51689	-1283.35999	866.56210	243.41562	-1330.04097	795.98018	233.73036	-1154.28901	1314.90918	-140.06423	-1126.12815	1049.17549	-210.39778	-1136.96243	823.39863	-268.42356	-1106.74792	744.75448	-255.98563	-1138.33079	923.78400	-20.09835	-1146.28987	1021.37888	-18.99714	-1129.79446	1090.84766	-20.40668	-1091.56069	1173.27617	-23.40023	-1088.84902	1305.83726	-18.92268	4185915979477856304811803089567744.00000	0.00000	4185920931238013446332902686064640.00000	-1145.20571	923.33933	-66.13307	-1133.79651	970.09628	-21.22337	-1092.51797	919.13334	-26.89499	-1271.62678	905.82419	-141.21557	-1230.37739	908.49221	134.99279	-1119.06355	892.85050	-60.32910	-1108.06377	893.56196	13.32646	-1219.23748	644.17474	-145.80391	-1181.95015	653.30859	144.60823	-1259.18201	278.36024	-89.34570	-1074.44761	297.41833	119.80021	-1401.79333	20.05102	-41.78994	-972.42310	29.92550	78.61537	-1165.95630	22.50387	-48.03135	-876.73861	246.33442	71.68424	-6.55145	-5.46252	6.99714	-6.33215	-1.09258	-0.75075	-15.10814	0.50475	0.11937	-58.88357	0.04180	0.09069	0.39140	1.67995	11.53360	26.97433	-0.65648	3.47983
